<svg width="64" height="9" viewBox="0 0 64 9" fill="none" xmlns="http://www.w3.org/2000/svg">
<path d="M2.26278 9H0.285511L3.2983 0.272727H5.67614L8.68466 9H6.70739L4.52131 2.26705H4.45312L2.26278 9ZM2.1392 5.5696H6.80966V7.00994H2.1392V5.5696ZM9.73509 9V0.272727H13.1783C13.8374 0.272727 14.3999 0.390625 14.8658 0.62642C15.3345 0.859375 15.6911 1.19034 15.9354 1.61932C16.1825 2.04545 16.3061 2.54687 16.3061 3.12358C16.3061 3.70312 16.1811 4.2017 15.9311 4.61932C15.6811 5.03409 15.3189 5.35227 14.8445 5.57386C14.3729 5.79545 13.8018 5.90625 13.1314 5.90625H10.826V4.4233H12.8331C13.1854 4.4233 13.478 4.375 13.7109 4.27841C13.9439 4.18182 14.1172 4.03693 14.2308 3.84375C14.3473 3.65057 14.4055 3.41051 14.4055 3.12358C14.4055 2.83381 14.3473 2.58949 14.2308 2.39062C14.1172 2.19176 13.9425 2.04119 13.7067 1.93892C13.4737 1.83381 13.1797 1.78125 12.8246 1.78125H11.5803V9H9.73509ZM14.4482 5.02841L16.6172 9H14.5803L12.4581 5.02841H14.4482ZM17.6101 9V0.272727H19.4553V4.12074H19.5703L22.7109 0.272727H24.9226L21.6839 4.1804L24.9609 9H22.7536L20.3629 5.41193L19.4553 6.51989V9H17.6101Z" fill="#BDD9BF"/>
<path d="M28.6609 9V0.272727H32.104C32.766 0.272727 33.3299 0.399148 33.7958 0.651989C34.2617 0.901989 34.6168 1.25 34.8612 1.69602C35.1083 2.1392 35.2319 2.65057 35.2319 3.23011C35.2319 3.80966 35.1069 4.32102 34.8569 4.7642C34.6069 5.20739 34.2447 5.55256 33.7702 5.79972C33.2987 6.04687 32.7276 6.17045 32.0572 6.17045H29.8626V4.69176H31.7589C32.114 4.69176 32.4066 4.63068 32.6367 4.50852C32.8697 4.38352 33.043 4.21165 33.1566 3.9929C33.2731 3.77131 33.3313 3.51705 33.3313 3.23011C33.3313 2.94034 33.2731 2.6875 33.1566 2.47159C33.043 2.25284 32.8697 2.08381 32.6367 1.96449C32.4038 1.84233 32.1083 1.78125 31.7504 1.78125H30.506V9H28.6609ZM38.2756 0.272727V9H36.4304V0.272727H38.2756ZM39.6999 9V7.90483L44.055 1.79403H39.6914V0.272727H46.3732V1.3679L42.0138 7.47869H46.3817V9H39.6999ZM47.7038 9V7.90483L52.0589 1.79403H47.6953V0.272727H54.3771V1.3679L50.0178 7.47869H54.3857V9H47.7038ZM57.3058 9H55.3285L58.3413 0.272727H60.7191L63.7276 9H61.7504L59.5643 2.26705H59.4961L57.3058 9ZM57.1822 5.5696H61.8526V7.00994H57.1822V5.5696Z" fill="#FFC857"/>
</svg>
