<svg width="121" height="31" viewBox="0 0 121 31" fill="none" xmlns="http://www.w3.org/2000/svg">
<path d="M7.16 20.26V30H0.4V0.86H10.68C12.7333 0.86 14.4933 1.10667 15.96 1.6C17.44 2.08 18.6533 2.74667 19.6 3.6C20.56 4.45333 21.2667 5.46 21.72 6.62C22.1733 7.78 22.4 9.03333 22.4 10.38C22.4 11.8333 22.1667 13.1667 21.7 14.38C21.2333 15.5933 20.52 16.6333 19.56 17.5C18.6 18.3667 17.38 19.0467 15.9 19.54C14.4333 20.02 12.6933 20.26 10.68 20.26H7.16ZM7.16 15.16H10.68C12.44 15.16 13.7067 14.74 14.48 13.9C15.2533 13.06 15.64 11.8867 15.64 10.38C15.64 9.71333 15.54 9.10667 15.34 8.56C15.14 8.01333 14.8333 7.54667 14.42 7.16C14.02 6.76 13.5067 6.45333 12.88 6.24C12.2667 6.02666 11.5333 5.92 10.68 5.92H7.16V15.16ZM33.3078 30H26.5078V0.86H33.3078V30ZM58.3003 22.46C58.4603 22.46 58.6203 22.4933 58.7803 22.56C58.9403 22.6133 59.0936 22.7133 59.2403 22.86L61.9203 25.68C60.747 27.2133 59.2736 28.3733 57.5003 29.16C55.7403 29.9333 53.6536 30.32 51.2403 30.32C49.027 30.32 47.0403 29.9467 45.2803 29.2C43.5336 28.44 42.047 27.4 40.8203 26.08C39.607 24.7467 38.6736 23.1733 38.0203 21.36C37.367 19.5333 37.0403 17.5533 37.0403 15.42C37.0403 13.2467 37.4136 11.2533 38.1603 9.44C38.907 7.61333 39.947 6.04 41.2803 4.72C42.627 3.4 44.2336 2.37333 46.1003 1.64C47.967 0.906665 50.027 0.539999 52.2803 0.539999C53.3736 0.539999 54.4003 0.639999 55.3603 0.839999C56.3336 1.02666 57.2403 1.29333 58.0803 1.64C58.9203 1.97333 59.6936 2.38 60.4003 2.86C61.107 3.32667 61.7336 3.84667 62.2803 4.42L60.0003 7.48C59.8536 7.66666 59.6803 7.84 59.4803 8C59.2803 8.14667 59.0003 8.22 58.6403 8.22C58.4003 8.22 58.1736 8.16667 57.9603 8.06C57.747 7.95333 57.5203 7.82667 57.2803 7.68C57.0403 7.52 56.7736 7.35333 56.4803 7.18C56.2003 6.99333 55.8603 6.82667 55.4603 6.68C55.0736 6.52 54.6136 6.38666 54.0803 6.28C53.5603 6.17333 52.947 6.12 52.2403 6.12C51.0136 6.12 49.8936 6.34 48.8803 6.78C47.867 7.20667 46.9936 7.82667 46.2603 8.64C45.5403 9.44 44.9736 10.4133 44.5603 11.56C44.1603 12.7067 43.9603 13.9933 43.9603 15.42C43.9603 16.9133 44.1603 18.24 44.5603 19.4C44.9736 20.56 45.527 21.54 46.2203 22.34C46.927 23.1267 47.747 23.7267 48.6803 24.14C49.6136 24.5533 50.6136 24.76 51.6803 24.76C52.2936 24.76 52.8536 24.7333 53.3603 24.68C53.867 24.6133 54.3336 24.5067 54.7603 24.36C55.2003 24.2133 55.6136 24.0267 56.0003 23.8C56.4003 23.56 56.8003 23.2667 57.2003 22.92C57.3603 22.7867 57.5336 22.68 57.7203 22.6C57.907 22.5067 58.1003 22.46 58.3003 22.46ZM120.684 30H115.444C114.857 30 114.371 29.8667 113.984 29.6C113.611 29.32 113.351 28.9667 113.204 28.54L111.484 23.46H100.404L98.6841 28.54C98.5507 28.9133 98.2907 29.2533 97.9041 29.56C97.5174 29.8533 97.0441 30 96.4841 30H91.2041L102.484 0.86H109.404L120.684 30ZM101.964 18.86H109.924L107.244 10.88C107.071 10.3733 106.864 9.78 106.624 9.1C106.397 8.40667 106.171 7.66 105.944 6.86C105.731 7.67333 105.511 8.42667 105.284 9.12C105.057 9.81333 104.844 10.4133 104.644 10.92L101.964 18.86Z" fill="#668D3C"/>
<path d="M71.7694 12.66H72.8494C73.8494 12.66 74.5694 12.3467 75.0094 11.72L81.5694 2.2C81.9294 1.68 82.336 1.32667 82.7894 1.14C83.256 0.953333 83.8227 0.86 84.4894 0.86H90.3694L81.7294 12.64C81.4227 13.0667 81.1027 13.42 80.7694 13.7C80.436 13.98 80.096 14.2133 79.7494 14.4C80.256 14.5867 80.716 14.8467 81.1294 15.18C81.556 15.5 81.9427 15.9333 82.2894 16.48L91.0894 30H85.0494C84.6627 30 84.3294 29.9733 84.0494 29.92C83.7827 29.8667 83.5494 29.7867 83.3494 29.68C83.1494 29.5733 82.976 29.4467 82.8294 29.3C82.6827 29.14 82.5427 28.96 82.4094 28.76L75.8094 18.62C75.5694 18.2467 75.2627 17.9867 74.8894 17.84C74.5294 17.68 74.036 17.6 73.4094 17.6H71.7694V30H65.0094V0.86H71.7694V12.66Z" fill="#8F3B1B"/>
</svg>
